<svg width="87" height="80" viewBox="0 0 87 80" fill="none" xmlns="http://www.w3.org/2000/svg">
<path opacity="0.16" d="M60 39.7245C60 29.3625 59.1035 19.2095 57.3875 9.33701C56.711 5.46501 52.234 3.73251 49.0275 6.00951L35.36 15.7005C33.4998 17.0183 31.2761 17.7255 28.9965 17.7245H16C13.0826 17.7245 10.2847 18.8834 8.22182 20.9463C6.15892 23.0092 5 25.8071 5 28.7245V50.7245C5 53.6419 6.15892 56.4398 8.22182 58.5027C10.2847 60.5656 13.0826 61.7245 16 61.7245H28.9965C31.2761 61.7235 33.4998 62.4308 35.36 63.7485L49.0275 73.4395C52.234 75.7165 56.711 73.9895 57.3875 70.112C59.136 60.0775 60.0101 49.9102 60 39.7245Z" fill="black"/>
<path d="M60 39.7245C60 29.3625 59.1035 19.2095 57.3875 9.33701C56.711 5.46501 52.234 3.73251 49.0275 6.00951L35.36 15.7005C33.4998 17.0183 31.2761 17.7255 28.9965 17.7245H16C13.0826 17.7245 10.2847 18.8834 8.22182 20.9463C6.15892 23.0092 5 25.8071 5 28.7245V50.7245C5 53.6419 6.15892 56.4398 8.22182 58.5027C10.2847 60.5656 13.0826 61.7245 16 61.7245H28.9965C31.2761 61.7235 33.4998 62.4308 35.36 63.7485L49.0275 73.4395C52.234 75.7165 56.711 73.9895 57.3875 70.112C59.136 60.0775 60.0101 49.9102 60 39.7245Z" stroke="black" stroke-width="10" stroke-linejoin="round"/>
<path d="M81.3242 23.2246C82.2299 34.206 82.2299 45.2433 81.3242 56.2246" stroke="black" stroke-width="10" stroke-linecap="round"/>
</svg>
